<mxfile host="app.diagrams.net" modified="2021-11-17T16:24:53.289Z" agent="5.0 (Windows NT 10.0; Win64; x64) AppleWebKit/537.36 (KHTML, like Gecko) Chrome/95.0.4638.69 Safari/537.36" etag="0Dm7-_3x7PwS1RpVtA-z" version="15.7.4" type="github">
  <diagram id="S6Xp7P4mLaGpEuK_jHzz" name="Page-1">
    <mxGraphModel dx="1038" dy="547" grid="1" gridSize="10" guides="1" tooltips="1" connect="1" arrows="1" fold="1" page="1" pageScale="1" pageWidth="827" pageHeight="1169" math="0" shadow="0">
      <root>
        <mxCell id="0" />
        <mxCell id="1" parent="0" />
        <UserObject label="" lucidchartObjectId="6uSl6x.-jzbq" id="ir8znV33I6Ru14xV_uGy-1">
          <mxCell style="html=1;jettySize=18;whiteSpace=wrap;overflow=block;blockSpacing=1;fontSize=13;strokeColor=#5E5E5E;strokeWidth=1.5;rounded=1;arcSize=12;edgeStyle=orthogonalEdgeStyle;startArrow=none;;endArrow=block;endFill=1;;exitY=0;exitPerimeter=0;entryY=0;entryPerimeter=0;" parent="1" source="ir8znV33I6Ru14xV_uGy-18" target="ir8znV33I6Ru14xV_uGy-18" edge="1">
            <mxGeometry width="100" height="100" relative="1" as="geometry">
              <Array as="points">
                <mxPoint x="521" y="40" generated="1" />
                <mxPoint x="521" y="40" generated="1" />
              </Array>
            </mxGeometry>
          </mxCell>
        </UserObject>
        <mxCell id="ir8znV33I6Ru14xV_uGy-2" value="" style="group;dropTarget=0;" parent="1" vertex="1">
          <mxGeometry x="271" y="570" width="585" height="270" as="geometry" />
        </mxCell>
        <UserObject label="&lt;div style=&quot;display: flex ; justify-content: flex-start ; align-items: baseline ; font-size: 0px ; line-height: 1.25 ; margin-top: -2px&quot;&gt;&lt;span&gt;&lt;div style=&quot;color: rgb(225 , 225 , 230) ; background-color: rgb(25 , 22 , 34) ; font-family: &amp;#34;cascadia mono&amp;#34; , &amp;#34;consolas&amp;#34; , &amp;#34;courier new&amp;#34; , monospace ; font-size: 16.5px ; line-height: 22px&quot;&gt;&lt;div style=&quot;font-family: &amp;#34;cascadia mono&amp;#34; , &amp;#34;consolas&amp;#34; , &amp;#34;courier new&amp;#34; , monospace ; line-height: 22px&quot;&gt;&lt;div style=&quot;line-height: 22px&quot;&gt;&lt;div style=&quot;line-height: 22px&quot;&gt;&lt;div style=&quot;line-height: 22px&quot;&gt;&lt;div style=&quot;line-height: 22px&quot;&gt;&lt;div style=&quot;font-family: &amp;#34;cascadia mono&amp;#34; , &amp;#34;consolas&amp;#34; , &amp;#34;courier new&amp;#34; , monospace ; line-height: 22px&quot;&gt;&lt;div style=&quot;font-family: &amp;#34;cascadia mono&amp;#34; , &amp;#34;consolas&amp;#34; , &amp;#34;courier new&amp;#34; , monospace ; line-height: 22px&quot;&gt;&lt;div&gt;&amp;nbsp; &lt;span style=&quot;color: #ff79c6&quot;&gt;public&lt;/span&gt; &lt;span style=&quot;color: #988bc7 ; font-style: italic&quot;&gt;String&lt;/span&gt; endereco&lt;span style=&quot;color: #ff79c6&quot;&gt;;&lt;/span&gt;&lt;/div&gt;&lt;div&gt;&amp;nbsp; &lt;span style=&quot;color: #ff79c6&quot;&gt;public&lt;/span&gt; &lt;span style=&quot;color: #988bc7 ; font-style: italic&quot;&gt;String&lt;/span&gt; cor&lt;span style=&quot;color: #ff79c6&quot;&gt;;&lt;/span&gt;&lt;/div&gt;&lt;div&gt;&amp;nbsp; &lt;span style=&quot;color: #ff79c6&quot;&gt;private&lt;/span&gt; &lt;span style=&quot;color: #ff79c6&quot;&gt;int&lt;/span&gt; num&lt;span style=&quot;color: #ff79c6&quot;&gt;;&lt;/span&gt;&lt;/div&gt;&lt;div&gt;&amp;nbsp; &lt;span style=&quot;color: #ff79c6&quot;&gt;protected&lt;/span&gt; &lt;span style=&quot;color: #ff79c6&quot;&gt;boolean&lt;/span&gt; fechadura&lt;span style=&quot;color: #ff79c6&quot;&gt;;&lt;/span&gt;&lt;/div&gt;&lt;div&gt;&lt;div&gt;&lt;div style=&quot;line-height: 22px&quot;&gt;&lt;span style=&quot;color: rgb(90 , 75 , 129)&quot;&gt;&amp;nbsp; // constuctor&lt;/span&gt;&lt;/div&gt;&lt;/div&gt;&lt;div style=&quot;line-height: 22px&quot;&gt;&lt;div style=&quot;font-family: &amp;#34;cascadia mono&amp;#34; , &amp;#34;consolas&amp;#34; , &amp;#34;courier new&amp;#34; , monospace ; line-height: 22px&quot;&gt;&lt;/div&gt;&lt;/div&gt;&lt;/div&gt;&lt;div&gt;&lt;div style=&quot;line-height: 22px&quot;&gt;&amp;nbsp;&amp;nbsp;&lt;span style=&quot;color: #ff79c6&quot;&gt;public&lt;/span&gt; &lt;span style=&quot;color: #67e480&quot;&gt;Casas&lt;/span&gt;(&lt;span style=&quot;color: #988bc7 ; font-style: italic&quot;&gt;String&lt;/span&gt; endereco&lt;span style=&quot;color: #ff79c6&quot;&gt;,&lt;/span&gt; &lt;span style=&quot;color: #988bc7 ; font-style: italic&quot;&gt;String&lt;/span&gt; cor&lt;span style=&quot;color: #ff79c6&quot;&gt;,&lt;/span&gt; &lt;span style=&quot;color: #ff79c6&quot;&gt;int&lt;/span&gt; num)&amp;nbsp;&lt;/div&gt;&lt;/div&gt;&lt;div style=&quot;line-height: 22px&quot;&gt;&lt;div style=&quot;font-family: &amp;#34;cascadia mono&amp;#34; , &amp;#34;consolas&amp;#34; , &amp;#34;courier new&amp;#34; , monospace ; line-height: 22px&quot;&gt;&lt;div&gt;&lt;span style=&quot;color: #5a4b81&quot;&gt;&amp;nbsp; // metodos&lt;/span&gt;&lt;/div&gt;&lt;div&gt;&amp;nbsp; &lt;span style=&quot;color: #ff79c6&quot;&gt;public&lt;/span&gt; &lt;span style=&quot;color: #ff79c6&quot;&gt;boolean&lt;/span&gt; &lt;span style=&quot;color: #67e480&quot;&gt;fechar&lt;/span&gt;()&lt;/div&gt;&lt;div&gt;&lt;div style=&quot;line-height: 22px&quot;&gt;&lt;span style=&quot;color: #ff79c6&quot;&gt;&amp;nbsp; public&lt;/span&gt; &lt;span style=&quot;color: #ff79c6&quot;&gt;void&lt;/span&gt; &lt;span style=&quot;color: #67e480&quot;&gt;status&lt;/span&gt;()&lt;/div&gt;&lt;/div&gt;&lt;div style=&quot;line-height: 22px&quot;&gt;&lt;div style=&quot;line-height: 22px&quot;&gt;&lt;span style=&quot;color: #ff79c6&quot;&gt;&amp;nbsp; public&lt;/span&gt; &lt;span style=&quot;color: #ff79c6&quot;&gt;void&lt;/span&gt; &lt;span style=&quot;color: #67e480&quot;&gt;entrar&lt;/span&gt;()&lt;/div&gt;&lt;div style=&quot;line-height: 22px&quot;&gt;&lt;div style=&quot;line-height: 22px&quot;&gt;&lt;div&gt;&amp;nbsp; &lt;span style=&quot;color: #5a4b81&quot;&gt;// metodo get set&lt;/span&gt;&lt;/div&gt;&lt;div&gt;&lt;/div&gt;&lt;/div&gt;&lt;/div&gt;&lt;/div&gt;&lt;/div&gt;&lt;/div&gt;&lt;/div&gt;&lt;/div&gt;&lt;/div&gt;&lt;/div&gt;&lt;/div&gt;&lt;/div&gt;&lt;/div&gt;&lt;/div&gt;&lt;/span&gt;&lt;/div&gt;" lucidchartObjectId="TqZ6~~qpHvjc" id="ir8znV33I6Ru14xV_uGy-3">
          <mxCell style="html=1;overflow=block;blockSpacing=1;whiteSpace=wrap;;whiteSpace=wrap;fontSize=13;fontFamily=Helvetica;spacing=3.8;verticalAlign=middle;strokeOpacity=0;fillOpacity=100;rounded=1;absoluteArcSize=1;arcSize=12;fillColor=#191621;strokeWidth=1.5;align=left;" parent="ir8znV33I6Ru14xV_uGy-2" vertex="1">
            <mxGeometry y="24.647302904564313" width="585" height="245.3526970954357" as="geometry" />
          </mxCell>
        </UserObject>
        <UserObject label="&lt;div style=&quot;display: flex ; justify-content: center ; text-align: center ; align-items: baseline ; line-height: 1.25 ; margin-top: -2px&quot;&gt;&lt;span style=&quot;font-size: 16.5px ; color: rgb(255 , 121 , 198)&quot;&gt;public&lt;/span&gt;&lt;span style=&quot;font-size: 16.5px ; color: rgb(225 , 225 , 230)&quot;&gt; &lt;/span&gt;&lt;span style=&quot;font-size: 16.5px ; color: rgb(255 , 121 , 198)&quot;&gt;&amp;nbsp;class&lt;/span&gt;&lt;span style=&quot;font-size: 16.5px ; color: rgb(225 , 225 , 230)&quot;&gt;&amp;nbsp;&lt;/span&gt;&lt;span&gt;&lt;font color=&quot;#988bc7&quot;&gt;&lt;span style=&quot;font-size: 16.5px&quot;&gt;&lt;i&gt;Casas&lt;/i&gt;&lt;/span&gt;&lt;/font&gt;&lt;/span&gt;&lt;/div&gt;" lucidchartObjectId=".FTl3qEEFbgZ" id="ir8znV33I6Ru14xV_uGy-4">
          <mxCell style="html=1;overflow=block;blockSpacing=1;whiteSpace=wrap;;whiteSpace=wrap;fontSize=13;spacing=3.8;strokeColor=#5e5e5e;strokeOpacity=100;rounded=1;absoluteArcSize=1;arcSize=9;strokeWidth=2.3;" parent="ir8znV33I6Ru14xV_uGy-2" vertex="1">
            <mxGeometry width="585" height="33.60995850622407" as="geometry" />
          </mxCell>
        </UserObject>
        <mxCell id="ir8znV33I6Ru14xV_uGy-5" value="" style="group;dropTarget=0;" parent="1" vertex="1">
          <mxGeometry x="271" y="270" width="585" height="220" as="geometry" />
        </mxCell>
        <UserObject label="&lt;div style=&quot;display: flex ; justify-content: flex-start ; align-items: baseline ; font-size: 0px ; line-height: 1.25 ; margin-top: -2px&quot;&gt;&lt;span&gt;&lt;div style=&quot;color: rgb(225 , 225 , 230) ; background-color: rgb(25 , 22 , 34) ; font-family: &amp;#34;cascadia mono&amp;#34; , &amp;#34;consolas&amp;#34; , &amp;#34;courier new&amp;#34; , monospace ; font-size: 16.5px ; line-height: 22px&quot;&gt;&lt;div style=&quot;font-family: &amp;#34;cascadia mono&amp;#34; , &amp;#34;consolas&amp;#34; , &amp;#34;courier new&amp;#34; , monospace ; line-height: 22px&quot;&gt;&lt;div style=&quot;font-family: &amp;#34;cascadia mono&amp;#34; , &amp;#34;consolas&amp;#34; , &amp;#34;courier new&amp;#34; , monospace ; line-height: 22px&quot;&gt;&lt;div&gt;&amp;nbsp; &amp;nbsp; &lt;span style=&quot;color: #988bc7 ; font-style: italic&quot;&gt;Casas&lt;/span&gt; c1 = &lt;span style=&quot;color: #ff79c6&quot;&gt;new&lt;/span&gt; &lt;span style=&quot;color: #988bc7 ; font-style: italic&quot;&gt;Casas&lt;/span&gt;(&lt;span style=&quot;color: #e7de79&quot;&gt;&quot;Macae&quot;&lt;/span&gt;&lt;span style=&quot;color: #ff79c6&quot;&gt;,&lt;/span&gt; &lt;span style=&quot;color: #e7de79&quot;&gt;&quot;GrÃ¼n&quot;&lt;/span&gt;&lt;span style=&quot;color: #ff79c6&quot;&gt;,&lt;/span&gt; &lt;span style=&quot;color: #78d1e1&quot;&gt;10&lt;/span&gt;)&lt;span style=&quot;color: #ff79c6&quot;&gt;;&lt;/span&gt;&lt;/div&gt;&lt;div&gt;&amp;nbsp; &amp;nbsp; c1.status()&lt;span style=&quot;color: #ff79c6&quot;&gt;;&lt;/span&gt;&lt;/div&gt;&lt;div&gt;&amp;nbsp; &amp;nbsp; c1.entrar()&lt;span style=&quot;color: #ff79c6&quot;&gt;;&lt;/span&gt;&lt;/div&gt;&lt;/div&gt;&lt;/div&gt;&lt;/div&gt;&lt;/span&gt;&lt;/div&gt;" lucidchartObjectId="TqZ6Tsh59g5n" id="ir8znV33I6Ru14xV_uGy-6">
          <mxCell style="html=1;overflow=block;blockSpacing=1;whiteSpace=wrap;;whiteSpace=wrap;fontSize=13;fontFamily=Helvetica;spacing=3.8;verticalAlign=middle;strokeOpacity=0;fillOpacity=100;rounded=1;absoluteArcSize=1;arcSize=12;fillColor=#191621;strokeWidth=1.5;align=left;" parent="ir8znV33I6Ru14xV_uGy-5" vertex="1">
            <mxGeometry y="12.941176470588236" width="585" height="207.05882352941177" as="geometry" />
          </mxCell>
        </UserObject>
        <UserObject label="&lt;div style=&quot;display: flex ; justify-content: center ; text-align: center ; align-items: baseline ; line-height: 1.25 ; margin-top: -2px&quot;&gt;&lt;span style=&quot;font-size: 16.5px ; color: rgb(255 , 121 , 198)&quot;&gt;public&lt;/span&gt;&lt;span style=&quot;font-size: 16.5px ; color: rgb(225 , 225 , 230)&quot;&gt; &lt;/span&gt;&lt;span style=&quot;font-size: 16.5px ; color: rgb(255 , 121 , 198)&quot;&gt;class&lt;/span&gt;&lt;span style=&quot;font-size: 16.5px ; color: rgb(225 , 225 , 230)&quot;&gt;&amp;nbsp;&lt;/span&gt;&lt;span&gt;&lt;font color=&quot;#988bc7&quot;&gt;&lt;span style=&quot;font-size: 16.5px&quot;&gt;&lt;i&gt;casa&lt;/i&gt;&lt;/span&gt;&lt;/font&gt;&lt;/span&gt;&lt;/div&gt;" lucidchartObjectId="aETlxaeVG_TZ" id="ir8znV33I6Ru14xV_uGy-7">
          <mxCell style="html=1;overflow=block;blockSpacing=1;whiteSpace=wrap;;whiteSpace=wrap;fontSize=13;spacing=3.8;strokeColor=#5e5e5e;strokeOpacity=100;rounded=1;absoluteArcSize=1;arcSize=9;strokeWidth=2.3;" parent="ir8znV33I6Ru14xV_uGy-5" vertex="1">
            <mxGeometry width="585" height="25.88235294117647" as="geometry" />
          </mxCell>
        </UserObject>
        <UserObject label="" lucidchartObjectId="SWvmJ2chjy-5" id="ir8znV33I6Ru14xV_uGy-17">
          <mxCell style="html=1;jettySize=18;whiteSpace=wrap;overflow=block;blockSpacing=1;fontSize=13;strokeColor=#5E5E5E;strokeWidth=1.5;rounded=1;arcSize=12;edgeStyle=orthogonalEdgeStyle;startArrow=none;;endArrow=block;endFill=1;;exitX=0.5;exitY=-0.038;exitPerimeter=0;entryX=0.511;entryY=1;entryPerimeter=0;" parent="1" source="ir8znV33I6Ru14xV_uGy-4" target="ir8znV33I6Ru14xV_uGy-6" edge="1">
            <mxGeometry width="100" height="100" relative="1" as="geometry">
              <Array as="points" />
            </mxGeometry>
          </mxCell>
        </UserObject>
        <UserObject label="RESOLUÃÃO (DIAGRAMA DE CLASSES):" lucidchartObjectId="RtSlxXosGkov" id="ir8znV33I6Ru14xV_uGy-18">
          <mxCell style="html=1;overflow=block;blockSpacing=1;whiteSpace=wrap;shadow=1;whiteSpace=wrap;fontSize=18.5;spacing=3.8;strokeColor=none;fillColor=#FFECA9;strokeWidth=0;" parent="1" vertex="1">
            <mxGeometry x="450" y="60" width="248" height="137" as="geometry" />
          </mxCell>
        </UserObject>
      </root>
    </mxGraphModel>
  </diagram>
</mxfile>
